<svg id="icon-carrito" xmlns="http://www.w3.org/2000/svg" width="20" height="20" viewBox="0 0 20 20"><defs><clipPath id="clipPath-icon-carrito"><rect id="Rectángulo_9654" data-name="Rectángulo 9654" width="20" height="20" fill="currentColor"></rect></clipPath></defs><g id="Enmascarar_grupo_630" data-name="Enmascarar grupo 630" clip-path="url(#clipPath-icon-carrito)"><g id="Grupo_25604" data-name="Grupo 25604" transform="translate(1.504 2.447)"><path id="Trazado_14461" data-name="Trazado 14461" d="M508.96,389.558a1.556,1.556,0,0,0-.637,0,1.624,1.624,0,0,0-1.317,1.592v.014a1.625,1.625,0,0,0,1.639,1.609h.014a1.624,1.624,0,0,0,1.625-1.623v-.014A1.624,1.624,0,0,0,508.96,389.558Z" transform="translate(-502.361 -377.671)" fill="currentColor"></path><path id="Trazado_14462" data-name="Trazado 14462" d="M515.959,389.375a1.668,1.668,0,0,0-1.672,1.659,1.642,1.642,0,0,0,.147.673,1.621,1.621,0,0,0,1.527,1.043h.013a1.746,1.746,0,0,0,1.659-1.717A1.669,1.669,0,0,0,515.959,389.375Z" transform="translate(-503.574 -377.646)" fill="currentColor"></path><path id="Trazado_14463" data-name="Trazado 14463" d="M518.353,378.106a.657.657,0,0,0-.246-.253.965.965,0,0,0-.6-.2l-8.629-.007c-.535,0-1.015.144-1.016.786,0,.472.085.84.622.9a19.715,19.715,0,0,0,2.37.022c.848,0,1.7-.013,2.545-.013h3.078l-.964,3.914a1.043,1.043,0,0,1-1.032.886H507.9a1.129,1.129,0,0,1-1.066-.893l-1.643-7.317a.919.919,0,0,0-.847-.627c-.5-.015-1.008,0-1.511,0a2.153,2.153,0,0,0-1,.119.861.861,0,0,0-.39.924.8.8,0,0,0,.832.682c.443.009.889-.03,1.332-.03.065,0,.46,2.021.5,2.182l.569,2.484c.153.667.308,1.332.458,2a2.849,2.849,0,0,0,2.761,2.169h6.556a2.849,2.849,0,0,0,2.764-2.171l1.183-4.96a.8.8,0,0,0,0-.134A.669.669,0,0,0,518.353,378.106Z" transform="translate(-501.431 -375.3)" fill="currentColor"></path></g></g></svg>